<?xml version="1.0" encoding="UTF-8"?>
<svg xmlns="http://www.w3.org/2000/svg" xmlns:xlink="http://www.w3.org/1999/xlink" width="300" height="300" viewBox="308 176 300 300" version="1.2">
<defs>
<clipPath id="clip1">
  <path d="M 296.96875 159.488281 L 646.96875 159.488281 L 646.96875 509.488281 L 296.96875 509.488281 Z M 296.96875 159.488281 "/>
</clipPath>
</defs>
<g id="surface1">
<path style=" stroke:none;fill-rule:nonzero;fill:rgb(14.431763%,28.944397%,64.546204%);fill-opacity:1;" d="M 345.972656 326.664062 C 341.617188 327.117188 336.488281 329.214844 337.023438 334.53125 C 337.527344 339.5 342.515625 340.867188 347.445312 340.359375 C 352.953125 339.792969 356.996094 337.125 356.519531 332.5 C 356.078125 328.117188 352.003906 326.058594 345.972656 326.664062 M 346.371094 329.601562 C 349.140625 329.328125 352.925781 329.617188 353.257812 332.851562 C 353.609375 336.332031 349.363281 337.1875 347.21875 337.402344 C 341.769531 337.964844 340.441406 335.683594 340.285156 334.179688 C 340.117188 332.457031 341.285156 331.320312 342.335938 330.730469 C 343.066406 330.324219 344.242188 329.820312 346.371094 329.601562 "/>
<path style=" stroke:none;fill-rule:nonzero;fill:rgb(14.431763%,28.944397%,64.546204%);fill-opacity:1;" d="M 346.65625 356.300781 C 345.152344 356.339844 340.417969 356.429688 339.386719 351.890625 C 338.539062 348.136719 341.597656 344.753906 347.359375 343.445312 C 352.507812 342.277344 357.519531 343.199219 358.542969 347.714844 C 358.714844 348.492188 359.054688 350.449219 357.382812 352.441406 C 356.609375 353.347656 355.601562 353.945312 354.375 354.503906 L 352.867188 351.9375 C 354.808594 351.128906 355.628906 349.742188 355.308594 348.308594 C 354.527344 344.855469 349.460938 346.003906 348.277344 346.277344 C 346.546875 346.671875 344.847656 347.214844 343.796875 348.070312 C 342.867188 348.804688 342.308594 349.90625 342.589844 351.152344 C 343.011719 353.011719 345.089844 353.4375 347.179688 353.328125 Z M 346.65625 356.300781 "/>
<path style=" stroke:none;fill-rule:nonzero;fill:rgb(14.431763%,28.944397%,64.546204%);fill-opacity:1;" d="M 360.304688 355.972656 L 363.929688 365.886719 L 360.925781 366.988281 L 358.28125 359.761719 L 354.316406 361.210938 L 356.773438 367.929688 L 353.773438 369.03125 L 351.3125 362.316406 L 346.480469 364.082031 L 349.214844 371.546875 L 346.210938 372.652344 L 342.488281 362.5 Z M 360.304688 355.972656 "/>
<path style=" stroke:none;fill-rule:nonzero;fill:rgb(14.431763%,28.944397%,64.546204%);fill-opacity:1;" d="M 354.902344 389.109375 L 368.441406 374.652344 L 366.914062 372.023438 L 347.726562 376.765625 L 349.261719 379.40625 L 353.5625 378.265625 L 356.417969 383.171875 L 353.332031 386.394531 Z M 356.777344 377.410156 L 363.832031 375.535156 L 358.726562 380.777344 Z M 356.777344 377.410156 "/>
<path style=" stroke:none;fill-rule:nonzero;fill:rgb(14.431763%,28.944397%,64.546204%);fill-opacity:1;" d="M 372.105469 381.15625 L 373.777344 383.386719 L 367.136719 395.621094 L 367.164062 395.65625 L 377.28125 388.035156 L 378.886719 390.164062 L 363.722656 401.574219 L 361.992188 399.273438 L 368.460938 387.289062 L 368.433594 387.257812 L 358.554688 394.703125 L 356.945312 392.570312 Z M 372.105469 381.15625 "/>
<path style=" stroke:none;fill-rule:nonzero;fill:rgb(14.431763%,28.944397%,64.546204%);fill-opacity:1;" d="M 390.910156 402.5625 L 384.386719 410.472656 C 382.960938 412.214844 382.367188 412.917969 382.070312 413.847656 C 381.617188 415.226562 382.277344 416.183594 382.953125 416.742188 C 385.066406 418.484375 386.535156 416.703125 388.589844 414.21875 L 395.25 406.144531 L 397.460938 407.964844 L 391.113281 415.648438 C 388.960938 418.265625 387.683594 419.648438 386.238281 420.3125 C 383.964844 421.355469 382.144531 420.332031 380.925781 419.324219 C 376.4375 415.621094 379.480469 411.921875 382.265625 408.550781 L 388.699219 400.75 Z M 390.910156 402.5625 "/>
<path style=" stroke:none;fill-rule:nonzero;fill:rgb(14.431763%,28.944397%,64.546204%);fill-opacity:1;" d="M 399.929688 409.628906 L 402.289062 411.101562 L 400.441406 424.90625 L 400.480469 424.925781 L 407.210938 414.203125 L 409.46875 415.617188 L 399.375 431.6875 L 396.9375 430.144531 L 398.707031 416.648438 L 398.671875 416.628906 L 392.09375 427.101562 L 389.839844 425.691406 Z M 399.929688 409.628906 "/>
<path style=" stroke:none;fill-rule:nonzero;fill:rgb(14.431763%,28.944397%,64.546204%);fill-opacity:1;" d="M 412.425781 416.960938 L 415.011719 418.167969 L 406.953125 435.339844 L 404.363281 434.121094 Z M 412.425781 416.960938 "/>
<path style=" stroke:none;fill-rule:nonzero;fill:rgb(14.431763%,28.944397%,64.546204%);fill-opacity:1;" d="M 416.5625 419.070312 L 419.488281 420.136719 L 418.046875 434.542969 L 418.085938 434.554688 L 426.144531 422.542969 L 429 423.582031 L 417.753906 439.675781 L 414.851562 438.625 Z M 416.5625 419.070312 "/>
<path style=" stroke:none;fill-rule:nonzero;fill:rgb(14.431763%,28.944397%,64.546204%);fill-opacity:1;" d="M 431.039062 424.132812 L 441.324219 426.472656 L 440.609375 429.597656 L 433.113281 427.890625 L 432.175781 431.992188 L 439.160156 433.582031 L 438.441406 436.71875 L 431.472656 435.121094 L 430.335938 440.136719 L 438.078125 441.898438 L 437.367188 445.023438 L 426.828125 442.625 Z M 431.039062 424.132812 "/>
<path style=" stroke:none;fill-rule:nonzero;fill:rgb(14.431763%,28.944397%,64.546204%);fill-opacity:1;" d="M 442.433594 445.699219 L 445.289062 445.992188 L 446.078125 438.105469 L 446.660156 438.164062 C 448.570312 438.363281 448.710938 438.75 450.09375 442.320312 L 451.734375 446.644531 L 455.148438 446.992188 L 453.800781 443.132812 C 452.6875 439.949219 452.199219 439.210938 451.113281 438.191406 L 451.109375 438.136719 C 451.675781 438.117188 452.230469 437.960938 452.75 437.71875 C 454.214844 437.097656 455.167969 435.359375 455.378906 433.300781 C 455.5625 431.453125 455.117188 429.230469 453.550781 428.246094 C 453.136719 428.015625 452.476562 427.652344 450.359375 427.441406 L 444.347656 426.828125 Z M 446.875 430.304688 L 449.105469 430.53125 C 451.027344 430.730469 451.378906 430.765625 451.875 431.238281 C 452.359375 431.71875 452.488281 432.472656 452.410156 433.242188 C 452.351562 433.792969 452.128906 434.992188 451.097656 435.34375 C 450.582031 435.53125 449.367188 435.402344 448.503906 435.316406 L 446.382812 435.105469 Z M 446.875 430.304688 "/>
<path style=" stroke:none;fill-rule:nonzero;fill:rgb(14.431763%,28.944397%,64.546204%);fill-opacity:1;" d="M 461.5 440.128906 C 461.714844 441.105469 462.261719 443.722656 464.839844 443.546875 C 466.84375 443.410156 467.542969 441.960938 467.457031 440.738281 C 467.355469 439.148438 466.339844 438.878906 463.671875 438.207031 C 462.226562 437.828125 459.019531 437.007812 458.746094 432.835938 C 458.605469 430.769531 459.398438 427.484375 463.5625 427.199219 C 466.332031 427.007812 468.96875 428.292969 469.375 432.566406 L 466.519531 432.914062 C 466.328125 431.941406 465.996094 430.195312 463.730469 430.34375 C 462.878906 430.402344 461.351562 430.847656 461.464844 432.386719 C 461.539062 433.601562 462.464844 434.066406 464.800781 434.625 C 467.011719 435.167969 470 435.894531 470.316406 440.550781 C 470.464844 442.847656 469.507812 444.855469 468.335938 445.675781 C 467.113281 446.554688 465.6875 446.703125 465.039062 446.746094 C 463.515625 446.84375 459.734375 446.921875 458.753906 440.667969 Z M 461.5 440.128906 "/>
<path style=" stroke:none;fill-rule:nonzero;fill:rgb(14.431763%,28.944397%,64.546204%);fill-opacity:1;" d="M 472.066406 426.621094 L 474.890625 426.171875 L 477.878906 444.90625 L 475.054688 445.355469 Z M 472.066406 426.621094 "/>
<path style=" stroke:none;fill-rule:nonzero;fill:rgb(14.431763%,28.944397%,64.546204%);fill-opacity:1;" d="M 482.070312 427.980469 L 477.96875 428.992188 L 477.203125 425.882812 L 488.15625 423.160156 L 488.925781 426.273438 L 484.839844 427.296875 L 488.636719 442.585938 L 485.867188 443.28125 Z M 482.070312 427.980469 "/>
<path style=" stroke:none;fill-rule:nonzero;fill:rgb(14.431763%,28.944397%,64.546204%);fill-opacity:1;" d="M 497.652344 431.183594 L 488.902344 422.738281 L 492.039062 421.546875 L 497.808594 427.386719 L 498.242188 419.207031 L 501.332031 418.039062 L 500.339844 430.195312 L 503.144531 437.636719 L 500.464844 438.644531 Z M 497.652344 431.183594 "/>
<path style=" stroke:none;fill-rule:nonzero;fill:rgb(14.431763%,28.944397%,64.546204%);fill-opacity:1;" d="M 518.820312 418.953125 C 521.300781 422.554688 525.609375 426.054688 530.015625 423.019531 C 534.121094 420.195312 532.921875 415.160156 530.109375 411.082031 C 526.976562 406.527344 522.691406 404.257812 518.863281 406.902344 C 515.230469 409.398438 515.375 413.960938 518.820312 418.953125 M 521.195312 417.191406 C 519.621094 414.898438 518.058594 411.445312 520.742188 409.597656 C 523.628906 407.609375 526.414062 410.929688 527.628906 412.695312 C 530.746094 417.207031 529.375 419.46875 528.136719 420.328125 C 526.71875 421.304688 525.15625 420.832031 524.132812 420.1875 C 523.417969 419.746094 522.417969 418.953125 521.195312 417.191406 "/>
<path style=" stroke:none;fill-rule:nonzero;fill:rgb(14.431763%,28.944397%,64.546204%);fill-opacity:1;" d="M 526.074219 401.222656 L 533.152344 394.511719 L 535.363281 396.832031 L 530.355469 401.574219 L 533.460938 404.839844 L 537.789062 400.738281 L 539.988281 403.058594 L 535.671875 407.171875 L 541.210938 413.011719 L 539.132812 414.976562 Z M 526.074219 401.222656 "/>
<path style=" stroke:none;fill-rule:nonzero;fill:rgb(14.431763%,28.944397%,64.546204%);fill-opacity:1;" d="M 559.28125 380.59375 C 560.371094 381.648438 563.761719 384.949219 561.246094 388.867188 C 559.171875 392.113281 554.605469 392.308594 549.640625 389.121094 C 545.199219 386.273438 542.328125 382.054688 544.832031 378.15625 C 545.257812 377.496094 546.421875 375.871094 549.007812 375.671875 C 550.199219 375.578125 551.332031 375.878906 552.59375 376.351562 L 551.820312 379.238281 C 549.882812 378.417969 548.308594 378.808594 547.523438 380.050781 C 545.609375 383.023438 549.984375 385.824219 551.011719 386.476562 C 552.511719 387.4375 554.085938 388.261719 555.433594 388.421875 C 556.605469 388.558594 557.78125 388.183594 558.472656 387.109375 C 559.503906 385.503906 558.34375 383.726562 556.800781 382.308594 Z M 559.28125 380.59375 "/>
<path style=" stroke:none;fill-rule:nonzero;fill:rgb(14.431763%,28.944397%,64.546204%);fill-opacity:1;" d="M 548.914062 371.242188 L 550.011719 368.597656 L 556.914062 371.480469 L 559.078125 366.285156 L 552.175781 363.410156 L 553.285156 360.773438 L 570.785156 368.074219 L 569.683594 370.71875 L 562.039062 367.523438 L 559.867188 372.714844 L 567.515625 375.90625 L 566.417969 378.550781 Z M 548.914062 371.242188 "/>
<path style=" stroke:none;fill-rule:nonzero;fill:rgb(14.431763%,28.944397%,64.546204%);fill-opacity:1;" d="M 554.234375 358.015625 L 554.976562 355.253906 L 573.296875 360.1875 L 572.550781 362.949219 Z M 554.234375 358.015625 "/>
<path style=" stroke:none;fill-rule:nonzero;fill:rgb(14.431763%,28.944397%,64.546204%);fill-opacity:1;" d="M 556.222656 351.84375 L 556.777344 349.113281 L 570.328125 345.953125 L 570.339844 345.917969 L 557.929688 343.410156 L 558.453125 340.804688 L 577.042969 344.554688 L 576.472656 347.382812 L 563.226562 350.507812 L 563.21875 350.542969 L 575.34375 352.984375 L 574.808594 355.601562 Z M 556.222656 351.84375 "/>
<path style=" stroke:none;fill-rule:nonzero;fill:rgb(14.431763%,28.944397%,64.546204%);fill-opacity:1;" d="M 578.601562 326.582031 L 559.179688 330.429688 L 558.886719 333.453125 L 577.230469 340.808594 L 577.523438 337.757812 L 573.363281 336.179688 L 573.910156 330.53125 L 578.296875 329.710938 Z M 570.261719 335 L 563.429688 332.402344 L 570.632812 331.121094 Z M 570.261719 335 "/>
<path style=" stroke:none;fill-rule:nonzero;fill:rgb(14.431763%,28.944397%,64.546204%);fill-opacity:1;" d="M 324.984375 325.914062 C 324.984375 252.730469 384.523438 193.195312 457.707031 193.195312 C 530.894531 193.195312 590.433594 252.730469 590.433594 325.914062 C 590.433594 399.101562 530.894531 458.640625 457.707031 458.640625 C 384.523438 458.640625 324.984375 399.101562 324.984375 325.914062 M 315.976562 325.914062 C 315.976562 404.066406 379.550781 467.644531 457.707031 467.644531 C 535.851562 467.644531 599.441406 404.066406 599.441406 325.914062 C 599.441406 247.765625 535.851562 184.183594 457.707031 184.183594 C 379.550781 184.183594 315.976562 247.765625 315.976562 325.914062 "/>
<path style=" stroke:none;fill-rule:nonzero;fill:rgb(78.587341%,13.021851%,15.765381%);fill-opacity:1;" d="M 356.71875 282.863281 L 352.46875 281.03125 L 354.753906 275.738281 L 359.003906 277.566406 Z M 356.460938 292.609375 L 356.066406 292.511719 L 358.300781 287.332031 L 363.117188 289.410156 L 365.863281 290.703125 L 367.3125 287.320312 L 364.492188 286.21875 L 359.679688 284.136719 L 361.960938 278.835938 L 362.34375 279.054688 L 363.75 275.78125 L 360.84375 274.625 L 355.53125 272.335938 L 353.167969 271.222656 L 352.160156 273.820312 L 349.585938 279.792969 L 348.097656 279.148438 L 345.210938 277.792969 L 343.753906 281.175781 L 346.730469 282.347656 L 348.207031 282.984375 L 345.699219 288.820312 L 344.53125 291.253906 L 346.96875 292.210938 L 352.28125 294.503906 L 355.089844 295.792969 Z M 348.859375 289.410156 L 351.097656 284.234375 L 355.34375 286.0625 L 353.101562 291.242188 Z M 348.859375 289.410156 "/>
<path style=" stroke:none;fill-rule:nonzero;fill:rgb(78.587341%,13.021851%,15.765381%);fill-opacity:1;" d="M 374.445312 241.476562 L 386.175781 231.386719 L 397.09375 244.078125 L 385.367188 254.164062 Z M 372.101562 243.367188 L 383.171875 256.222656 L 385.023438 258.507812 L 387.359375 256.492188 L 387.136719 256.21875 L 398.871094 246.128906 L 399.214844 246.535156 L 401.609375 244.476562 L 399.621094 242.3125 L 388.429688 229.3125 L 386.714844 227.167969 L 384.847656 228.894531 L 372.25 239.730469 L 370.25 241.339844 Z M 384.734375 252.769531 L 386.386719 251.257812 L 393.960938 244.734375 L 395.808594 243.238281 L 394.046875 241.179688 L 392.640625 242.476562 C 392.65625 241.851562 392.679688 241.28125 392.714844 240.75 L 391.835938 240.675781 L 390.605469 240.621094 C 390.402344 240.605469 390.105469 240.570312 389.71875 240.511719 L 391.238281 239.339844 L 389.40625 237.21875 L 388.195312 238.335938 L 385.785156 240.410156 L 384.167969 238.527344 L 386.699219 236.347656 L 388.457031 234.988281 L 386.617188 232.851562 L 384.855469 234.453125 L 377.648438 240.65625 L 375.945312 242.039062 L 377.757812 244.144531 L 379.367188 242.660156 L 381.867188 240.511719 L 383.488281 242.394531 L 381.488281 244.105469 L 379.792969 245.503906 L 381.585938 247.582031 L 383.214844 246.105469 L 385.195312 244.398438 L 387.429688 246.972656 L 384.722656 249.289062 L 382.972656 250.726562 Z M 389.722656 244.988281 L 387.503906 242.414062 L 388.847656 241.265625 C 388.78125 241.949219 388.671875 242.550781 388.496094 243.070312 C 389.65625 243.066406 390.398438 243.097656 390.730469 243.167969 C 391.066406 243.234375 391.363281 243.296875 391.613281 243.359375 Z M 389.722656 244.988281 "/>
<path style=" stroke:none;fill-rule:nonzero;fill:rgb(78.587341%,13.021851%,15.765381%);fill-opacity:1;" d="M 420.816406 214.039062 C 421.394531 214.386719 421.894531 214.6875 422.3125 214.945312 C 422.457031 214.597656 422.65625 214.082031 422.921875 213.410156 C 423.175781 212.75 423.347656 212.300781 423.4375 212.066406 C 421.972656 211.28125 420.507812 210.585938 419.046875 209.96875 C 418.761719 210.894531 418.328125 211.78125 417.753906 212.640625 C 419.226562 213.238281 420.25 213.699219 420.816406 214.039062 M 423.394531 232.808594 C 423.769531 233.082031 424.117188 233.332031 424.429688 233.570312 L 424.746094 232.230469 C 424.992188 231.203125 425.222656 229.832031 425.441406 228.097656 L 425.769531 225.183594 C 425.78125 225 425.816406 224.695312 425.867188 224.289062 L 425.148438 224.054688 C 425.015625 224.019531 424.261719 223.691406 422.890625 223.058594 L 422.90625 223.859375 C 422.917969 224.21875 422.875 224.839844 422.769531 225.738281 C 422.667969 226.640625 422.5625 227.375 422.460938 227.945312 C 422.347656 228.515625 422.222656 229.109375 422.066406 229.734375 C 421.914062 230.359375 421.78125 230.789062 421.683594 231.039062 C 421.589844 231.28125 421.484375 231.53125 421.363281 231.796875 C 422.335938 232.199219 423.007812 232.535156 423.394531 232.808594 M 420.691406 220.707031 C 421.21875 220.960938 421.921875 221.347656 422.816406 221.894531 L 423.089844 220.988281 L 423.664062 219.554688 C 423.710938 219.433594 423.792969 219.234375 423.890625 218.957031 C 423.207031 218.621094 421.753906 217.980469 419.535156 217.027344 C 419.292969 217.886719 419.082031 218.480469 418.917969 218.796875 C 418.757812 219.117188 418.578125 219.449219 418.386719 219.773438 C 419.398438 220.140625 420.15625 220.453125 420.691406 220.707031 M 436.023438 217.730469 C 434.871094 216.96875 434.0625 216.433594 433.585938 216.140625 L 437.523438 215.195312 L 438.070312 217.957031 L 435.1875 218.660156 Z M 436.195312 224.464844 C 436.660156 223.976562 437.078125 223.558594 437.46875 223.230469 C 436.34375 222.433594 435.503906 221.867188 434.953125 221.519531 L 438.628906 220.636719 L 438.851562 221.84375 C 438.941406 222.375 439.039062 223.011719 439.15625 223.761719 Z M 429.855469 217.042969 L 432.679688 216.359375 C 432.417969 216.726562 431.945312 217.21875 431.273438 217.832031 C 431.730469 218.070312 432.421875 218.484375 433.347656 219.097656 L 430.1875 219.859375 Z M 424.238281 217.039062 C 424.578125 217.285156 424.957031 217.5625 425.34375 217.875 L 425.851562 217.050781 C 425.976562 216.855469 426.210938 216.363281 426.570312 215.570312 L 426.804688 216.820312 C 426.8125 216.863281 426.867188 217.300781 426.988281 218.140625 C 427.121094 218.984375 427.191406 219.5 427.21875 219.683594 C 427.242188 219.878906 427.261719 220.164062 427.292969 220.558594 L 424.707031 221.128906 L 425.367188 223.890625 L 427.671875 223.277344 L 427.773438 224.519531 C 427.800781 224.984375 427.839844 225.613281 427.863281 226.402344 C 427.890625 227.183594 427.910156 227.726562 427.914062 228.015625 C 427.921875 228.300781 427.914062 228.71875 427.90625 229.261719 L 430.433594 228.546875 L 439.339844 226.394531 L 439.285156 226.773438 C 439.25 227.070312 438.949219 227.351562 438.382812 227.597656 C 437.804688 227.855469 437.410156 228 437.199219 228.042969 C 436.988281 228.085938 436.28125 228.191406 435.089844 228.351562 C 435.792969 229.113281 436.234375 229.675781 436.417969 230.023438 C 436.609375 230.367188 436.789062 230.742188 436.949219 231.136719 C 438.917969 230.613281 440.199219 230.128906 440.78125 229.675781 C 441.371094 229.226562 441.773438 228.761719 441.984375 228.28125 C 442.203125 227.789062 442.316406 227.328125 442.351562 226.886719 C 442.382812 226.441406 442.417969 226.027344 442.4375 225.648438 L 444.539062 225.210938 L 443.886719 222.550781 L 441.941406 223.082031 L 441.792969 222.183594 L 441.566406 220.871094 C 441.53125 220.671875 441.480469 220.375 441.414062 219.960938 L 443.71875 219.476562 L 443.050781 216.707031 L 440.84375 217.296875 L 440.511719 215.5625 C 440.488281 215.410156 440.386719 214.90625 440.214844 214.035156 L 439.820312 211.847656 L 437.003906 212.617188 L 429.128906 214.519531 L 426.78125 215.015625 C 426.980469 214.453125 427.183594 213.894531 427.382812 213.339844 L 437.492188 210.902344 L 440.804688 210.199219 L 440.136719 207.402344 L 436.863281 208.289062 L 428.21875 210.371094 C 428.398438 209.78125 428.554688 209.140625 428.695312 208.457031 C 427.789062 208.496094 426.722656 208.410156 425.472656 208.199219 C 425.414062 208.9375 425.328125 209.597656 425.207031 210.175781 C 425.085938 210.773438 424.878906 211.558594 424.605469 212.554688 C 424.328125 213.558594 424 214.316406 423.632812 214.835938 C 423.265625 215.355469 422.925781 215.800781 422.605469 216.183594 C 423.347656 216.515625 423.898438 216.800781 424.238281 217.039062 M 430.488281 222.597656 L 433.78125 221.800781 L 433.535156 222.007812 L 432.800781 222.660156 C 432.707031 222.746094 432.554688 222.875 432.347656 223.035156 C 433.382812 223.65625 434.007812 224.042969 434.226562 224.226562 C 434.453125 224.410156 434.679688 224.59375 434.898438 224.78125 L 430.722656 225.785156 Z M 430.488281 222.597656 "/>
<path style=" stroke:none;fill-rule:nonzero;fill:rgb(78.587341%,13.021851%,15.765381%);fill-opacity:1;" d="M 478.960938 222.839844 L 482.433594 223.734375 L 483.164062 220.882812 L 479.804688 220.027344 L 477.425781 219.472656 L 478.144531 216.621094 L 480.347656 217.253906 L 483.855469 218.15625 L 484.578125 215.328125 L 479.972656 214.15625 L 477.734375 213.644531 L 478.457031 210.855469 L 480.628906 211.46875 L 482.859375 212.046875 C 482.671875 210.964844 482.359375 209.773438 481.910156 208.476562 C 483.101562 208.28125 484.085938 208.085938 484.835938 207.886719 C 485.265625 209.3125 485.667969 210.6875 486 212.019531 C 485.492188 212.148438 484.96875 212.28125 484.402344 212.441406 L 489.347656 213.710938 C 488.90625 213.359375 488.433594 213.015625 487.933594 212.648438 C 488.488281 212.117188 488.960938 211.625 489.34375 211.164062 C 489.730469 210.710938 490.175781 210.136719 490.667969 209.441406 C 491.460938 210.109375 492.28125 210.769531 493.152344 211.433594 C 492.082031 212.617188 491.5 213.269531 491.414062 213.371094 L 490.824219 214.085938 L 492.96875 214.632812 L 495.269531 215.160156 L 494.53125 218.015625 L 492.394531 217.402344 L 487.59375 216.175781 L 486.894531 218.925781 L 490.058594 219.742188 L 492.425781 220.277344 L 491.6875 223.121094 L 489.679688 222.554688 L 486.1875 221.660156 L 485.46875 224.5 L 490.34375 225.753906 L 492.640625 226.28125 L 491.914062 229.15625 L 489.703125 228.53125 L 484.753906 227.265625 L 484.136719 229.652344 L 483.417969 232.820312 L 480.214844 231.996094 L 481.109375 228.878906 L 481.71875 226.484375 L 478.273438 225.601562 L 474.875 224.800781 L 475.613281 221.914062 Z M 473.980469 207.769531 C 474.910156 207.1875 475.753906 206.585938 476.507812 205.972656 C 477.679688 207.410156 478.589844 208.574219 479.25 209.496094 C 479.078125 209.640625 478.304688 210.371094 476.925781 211.683594 C 476.585938 211.199219 475.605469 209.898438 473.980469 207.769531 M 469.609375 224.023438 C 470.082031 223.464844 470.652344 222.738281 471.324219 221.820312 C 471.984375 220.894531 472.425781 220.273438 472.640625 219.9375 L 473.566406 218.476562 C 474.121094 219.203125 474.796875 219.996094 475.601562 220.828125 C 474.699219 222.21875 473.917969 223.378906 473.257812 224.3125 C 472.582031 225.234375 471.964844 226.09375 471.375 226.886719 C 470.785156 227.683594 470.21875 228.375 469.6875 228.953125 C 469.175781 227.726562 468.753906 226.886719 468.441406 226.417969 L 467.902344 225.644531 C 468.554688 225.121094 469.113281 224.585938 469.609375 224.023438 M 470.894531 213.9375 C 472.128906 212.945312 472.914062 212.304688 473.285156 211.996094 C 474.125 212.996094 475.078125 214.226562 476.160156 215.6875 C 474.914062 216.804688 474.140625 217.511719 473.855469 217.792969 C 473.59375 217.398438 473.316406 217.003906 473.042969 216.609375 C 472.765625 216.21875 472.046875 215.324219 470.894531 213.9375 "/>
<path style=" stroke:none;fill-rule:nonzero;fill:rgb(78.587341%,13.021851%,15.765381%);fill-opacity:1;" d="M 512.871094 241.722656 C 514.078125 242.304688 515.453125 242.832031 517.019531 243.285156 C 518.574219 243.742188 520.058594 243.789062 521.464844 243.425781 C 522.855469 243.066406 523.972656 242.625 524.804688 242.117188 C 525.628906 241.605469 526.363281 241.011719 526.996094 240.347656 L 528.195312 239.113281 C 525.636719 236.871094 523.949219 235.441406 523.15625 234.832031 L 520.714844 232.96875 L 522.640625 230.625 L 525.0625 232.707031 L 530.140625 236.871094 C 531.25 235.539062 531.921875 234.730469 532.144531 234.445312 L 533.921875 232.175781 C 535.097656 233.320312 535.722656 233.917969 535.800781 233.96875 L 536.59375 234.617188 C 535.863281 235.4375 535.460938 235.890625 535.378906 235.988281 L 532.757812 239.015625 L 537.984375 243.308594 L 540.492188 245.273438 L 538.515625 247.683594 L 536.105469 245.601562 L 530.878906 241.3125 C 530.53125 241.761719 530.273438 242.136719 530.097656 242.433594 C 529.929688 242.738281 529.710938 243.246094 529.449219 243.976562 C 529.191406 244.710938 528.988281 245.5 528.835938 246.351562 C 528.695312 247.210938 528.652344 248.496094 528.722656 250.226562 C 528.792969 251.953125 529.140625 253.316406 529.742188 254.300781 C 530.347656 255.285156 530.976562 256.195312 531.609375 257.027344 C 531.273438 257.136719 530.910156 257.257812 530.539062 257.417969 C 530.160156 257.570312 529.679688 257.851562 529.09375 258.246094 L 528.28125 258.78125 C 527.921875 258.160156 527.429688 257.214844 526.78125 255.964844 C 526.128906 254.703125 525.726562 253.113281 525.574219 251.195312 C 525.414062 249.285156 525.410156 247.992188 525.570312 247.308594 L 525.957031 245.234375 C 525.265625 245.578125 524.582031 245.886719 523.894531 246.160156 C 523.203125 246.441406 522.214844 246.636719 520.917969 246.75 C 519.644531 246.859375 518.175781 246.761719 516.535156 246.449219 C 514.882812 246.132812 513.496094 245.796875 512.367188 245.457031 C 512.464844 245.144531 512.558594 244.8125 512.640625 244.445312 C 512.738281 244.074219 512.808594 243.171875 512.871094 241.722656 "/>
<path style=" stroke:none;fill-rule:nonzero;fill:rgb(78.587341%,13.021851%,15.765381%);fill-opacity:1;" d="M 569.996094 278.921875 C 568.355469 280.570312 567.304688 281.601562 566.855469 282.027344 L 565.597656 283.1875 C 564.765625 282.128906 564.011719 281.265625 563.308594 280.601562 C 563.777344 280.265625 564.1875 279.96875 564.53125 279.714844 C 564.878906 279.457031 565.292969 279.097656 565.785156 278.632812 C 566.277344 278.171875 566.929688 277.464844 567.722656 276.523438 C 568.402344 277.410156 569.167969 278.210938 569.996094 278.921875 M 555.4375 272.648438 L 557.402344 271.878906 L 558.996094 271.179688 L 559.964844 273.894531 L 560.683594 275.714844 C 561.996094 274.355469 562.914062 273.160156 563.460938 272.152344 L 564.140625 270.910156 C 565.195312 271.808594 565.820312 272.3125 566.027344 272.40625 L 566.824219 272.8125 C 565.792969 274.507812 564.921875 275.804688 564.21875 276.679688 L 563.386719 277.730469 C 562.523438 277.015625 561.636719 276.394531 560.738281 275.859375 L 564.90625 286.425781 C 565.035156 285.835938 565.128906 285.101562 565.1875 284.207031 C 565.847656 284.402344 566.390625 284.550781 566.828125 284.644531 C 567.277344 284.742188 567.851562 284.816406 568.5625 284.871094 C 569.273438 284.921875 569.796875 284.933594 570.132812 284.914062 L 571.753906 284.816406 C 571.714844 286.03125 571.761719 287.25 571.90625 288.457031 C 571.332031 288.429688 570.835938 288.398438 570.414062 288.367188 C 570.003906 288.335938 569.285156 288.257812 568.285156 288.128906 C 567.269531 288.003906 566.621094 287.902344 566.316406 287.824219 L 565.375 287.613281 L 566.101562 289.441406 L 567.316406 292.257812 L 565.566406 292.898438 L 563.347656 293.769531 L 561.691406 294.476562 L 560.488281 291.421875 L 562.480469 290.707031 L 563.421875 290.332031 L 557.464844 275.246094 L 556.371094 275.675781 L 554.671875 276.417969 L 553.46875 273.355469 Z M 556.167969 282.671875 C 555.992188 283.359375 555.765625 284.058594 555.476562 284.785156 C 556.09375 285.128906 556.726562 285.4375 557.363281 285.699219 Z M 547.765625 275.027344 L 550.621094 273.902344 L 551.574219 276.585938 L 553.703125 281.988281 C 553.820312 281.726562 553.921875 281.445312 554.003906 281.144531 C 554.730469 281.710938 555.429688 282.171875 556.109375 282.527344 L 555.167969 280.140625 L 554.09375 277.667969 L 556.808594 276.605469 L 557.691406 279.117188 L 561.496094 288.769531 L 560.386719 290.335938 C 560.132812 290.253906 559.773438 290.136719 559.328125 289.988281 C 558.878906 289.828125 557.839844 289.277344 556.203125 288.324219 L 558.175781 293.308594 L 559.289062 295.859375 L 556.441406 296.988281 L 555.453125 294.242188 L 553.089844 288.261719 C 552.691406 288.523438 552.347656 288.730469 552.097656 288.871094 C 551.839844 289.019531 551.441406 289.207031 550.910156 289.4375 C 550.378906 289.6875 549.78125 289.8125 549.113281 289.820312 C 548.445312 289.84375 547.839844 289.558594 547.300781 288.964844 C 546.753906 288.371094 546.355469 287.8125 546.097656 287.28125 C 545.839844 286.753906 545.585938 286.09375 545.3125 285.3125 C 545.6875 285.09375 546.003906 284.882812 546.28125 284.699219 C 546.546875 284.507812 546.804688 284.296875 547.019531 284.066406 L 547.820312 283.222656 C 548.015625 283.800781 548.179688 284.269531 548.296875 284.632812 C 548.40625 285 548.5 285.257812 548.578125 285.414062 C 548.832031 286 549.144531 286.300781 549.515625 286.320312 C 549.886719 286.332031 550.230469 286.285156 550.554688 286.164062 C 551.035156 285.972656 551.34375 285.796875 551.488281 285.636719 L 551.878906 285.183594 L 548.886719 277.605469 Z M 547.765625 275.027344 "/>
<path style=" stroke:none;fill-rule:nonzero;fill:rgb(14.431763%,28.944397%,64.546204%);fill-opacity:1;" d="M 377.71875 365.335938 C 377.835938 365.574219 377.960938 365.808594 378.078125 366.046875 C 378.582031 367.023438 379.085938 367.992188 379.621094 368.945312 C 379.804688 369.269531 379.988281 369.601562 380.171875 369.929688 C 380.726562 370.910156 381.300781 371.871094 381.890625 372.820312 C 382.003906 372.996094 382.109375 373.175781 382.222656 373.347656 C 382.230469 373.382812 382.253906 373.402344 382.269531 373.429688 C 382.910156 374.445312 383.589844 375.453125 384.277344 376.4375 C 398.328125 363.828125 416.894531 356.144531 437.257812 356.144531 C 446.722656 356.144531 455.832031 357.773438 464.242188 360.8125 C 464.296875 360.832031 464.359375 360.855469 464.410156 360.871094 C 464.492188 360.898438 464.570312 360.933594 464.648438 360.964844 C 476.257812 365.195312 488.796875 367.503906 501.882812 367.503906 C 515.324219 367.503906 528.199219 365.058594 540.085938 360.589844 C 540.195312 360.34375 540.308594 360.101562 540.414062 359.84375 C 540.46875 359.71875 540.511719 359.589844 540.5625 359.46875 C 540.886719 358.671875 541.1875 357.871094 541.496094 357.0625 C 541.636719 356.699219 541.777344 356.328125 541.917969 355.957031 C 541.917969 355.949219 541.925781 355.929688 541.925781 355.917969 C 542.261719 355 542.558594 354.0625 542.871094 353.128906 C 542.992188 352.746094 543.117188 352.378906 543.226562 352.003906 C 543.519531 351.039062 543.792969 350.074219 544.054688 349.097656 C 544.152344 348.726562 544.265625 348.359375 544.367188 347.980469 C 544.621094 347 544.839844 346.011719 545.058594 345.015625 C 545.136719 344.632812 545.222656 344.265625 545.304688 343.886719 C 545.519531 342.882812 545.695312 341.875 545.871094 340.855469 C 545.902344 340.628906 545.949219 340.40625 545.984375 340.183594 C 531.523438 351.253906 513.460938 357.851562 493.835938 357.851562 C 480.558594 357.851562 467.984375 354.839844 456.753906 349.449219 C 456.242188 349.183594 455.726562 348.914062 455.199219 348.65625 C 455.191406 348.652344 455.171875 348.648438 455.164062 348.640625 C 446.003906 344.183594 435.714844 341.71875 424.859375 341.71875 C 405.824219 341.71875 388.597656 349.390625 376.074219 361.808594 C 376.101562 361.859375 376.125 361.925781 376.152344 361.976562 C 376.652344 363.117188 377.171875 364.230469 377.71875 365.335938 "/>
<path style=" stroke:none;fill-rule:nonzero;fill:rgb(14.431763%,28.944397%,64.546204%);fill-opacity:1;" d="M 516.820312 392.8125 C 512.964844 393.90625 508.917969 394.5 504.722656 394.5 C 498.089844 394.5 491.804688 393.035156 486.15625 390.425781 C 485.945312 390.324219 485.742188 390.207031 485.523438 390.101562 C 485.363281 390.03125 485.1875 389.960938 485.019531 389.878906 C 478.859375 387.050781 471.996094 385.484375 464.773438 385.484375 C 447.410156 385.484375 432.191406 394.605469 423.617188 408.3125 C 434.152344 412.683594 445.703125 415.113281 457.820312 415.113281 C 480.445312 415.113281 501.085938 406.683594 516.820312 392.816406 Z M 516.820312 392.8125 "/>
<path style=" stroke:none;fill-rule:nonzero;fill:rgb(14.431763%,28.944397%,64.546204%);fill-opacity:1;" d="M 508.957031 377.929688 C 497.605469 377.929688 486.832031 375.398438 477.164062 370.90625 C 477.117188 370.878906 477.074219 370.855469 477.019531 370.832031 C 476.835938 370.75 476.652344 370.675781 476.476562 370.589844 C 468.011719 366.683594 458.585938 364.515625 448.660156 364.515625 C 427.269531 364.515625 408.246094 374.625 396.085938 390.3125 C 396.359375 390.578125 396.636719 390.84375 396.917969 391.105469 C 396.945312 391.132812 396.96875 391.160156 397 391.175781 C 397.4375 391.589844 397.886719 392.003906 398.34375 392.40625 C 398.46875 392.515625 398.589844 392.617188 398.714844 392.734375 C 399.0625 393.046875 399.425781 393.355469 399.78125 393.65625 C 400.09375 393.921875 400.40625 394.195312 400.71875 394.453125 C 401.011719 394.695312 401.300781 394.941406 401.589844 395.179688 C 401.910156 395.445312 402.242188 395.6875 402.554688 395.945312 C 402.867188 396.183594 403.175781 396.425781 403.488281 396.667969 C 403.648438 396.792969 403.816406 396.929688 403.984375 397.054688 C 404.542969 397.476562 405.109375 397.882812 405.683594 398.296875 C 406.105469 398.605469 406.527344 398.90625 406.957031 399.203125 C 407.558594 399.625 408.175781 400.027344 408.789062 400.4375 C 409.203125 400.71875 409.632812 400.984375 410.058594 401.253906 C 410.390625 401.464844 410.71875 401.664062 411.054688 401.878906 C 421.078125 386.671875 438.285156 376.640625 457.851562 376.640625 C 467.554688 376.640625 476.699219 379.113281 484.660156 383.449219 C 484.851562 383.5625 485.074219 383.652344 485.273438 383.773438 C 485.546875 383.921875 485.804688 384.097656 486.066406 384.253906 C 492.429688 387.664062 499.699219 389.601562 507.414062 389.601562 C 512.882812 389.601562 518.125 388.636719 522.964844 386.851562 C 523.625 386.15625 524.269531 385.445312 524.898438 384.726562 C 525.078125 384.519531 525.269531 384.3125 525.453125 384.105469 C 526.125 383.332031 526.765625 382.535156 527.40625 381.742188 C 527.621094 381.476562 527.839844 381.214844 528.058594 380.953125 C 528.65625 380.179688 529.238281 379.394531 529.820312 378.601562 C 530.046875 378.292969 530.285156 377.992188 530.515625 377.679688 C 531.066406 376.902344 531.605469 376.109375 532.132812 375.316406 C 532.351562 374.976562 532.589844 374.640625 532.816406 374.300781 C 532.878906 374.203125 532.933594 374.097656 533.003906 373.992188 C 525.453125 376.53125 517.367188 377.929688 508.957031 377.929688 "/>
<path style=" stroke:none;fill-rule:nonzero;fill:rgb(0%,67.83905%,93.728638%);fill-opacity:1;" d="M 484.417969 273.371094 L 484.417969 267.464844 L 477.40625 273.371094 Z M 484.417969 273.371094 "/>
<path style=" stroke:none;fill-rule:nonzero;fill:rgb(0%,67.83905%,93.728638%);fill-opacity:1;" d="M 444.300781 266.574219 C 443.714844 266.1875 443.050781 266.007812 442.257812 266.007812 C 441.460938 266.007812 440.769531 266.1875 440.230469 266.574219 C 439.648438 266.953125 439.375 267.410156 439.375 267.945312 L 439.375 271.828125 C 439.375 272.351562 439.636719 272.789062 440.210938 273.164062 C 440.769531 273.546875 441.460938 273.75 442.257812 273.75 C 443.050781 273.75 443.714844 273.546875 444.300781 273.164062 C 444.867188 272.761719 445.15625 272.304688 445.15625 271.789062 L 445.15625 267.929688 C 445.15625 267.402344 444.867188 266.9375 444.300781 266.574219 "/>
<path style=" stroke:none;fill-rule:nonzero;fill:rgb(0%,67.83905%,93.728638%);fill-opacity:1;" d="M 493.207031 275.691406 L 490.277344 275.691406 L 490.277344 281.488281 L 484.417969 281.488281 L 484.417969 275.691406 L 472.78125 275.691406 L 472.78125 273.75 L 484.417969 264.050781 L 490.277344 264.050781 L 490.277344 273.371094 L 493.199219 273.371094 L 493.199219 273.75 L 493.207031 273.75 Z M 471.6875 268.914062 C 471.6875 270.238281 469.808594 271.96875 466.050781 274.109375 L 465.667969 274.335938 C 462.25 276.28125 460.40625 277.855469 460.105469 279.046875 L 471.683594 279.046875 L 471.683594 279.535156 L 471.6875 279.535156 L 471.6875 281.488281 L 454.179688 281.488281 L 454.179688 279.558594 C 454.179688 278.207031 456.070312 276.472656 459.824219 274.335938 L 460.21875 274.109375 C 463.957031 271.96875 465.828125 270.238281 465.828125 268.914062 L 465.828125 267.945312 C 465.828125 267.402344 465.539062 266.953125 464.96875 266.574219 C 464.378906 266.1875 463.691406 266.007812 462.925781 266.007812 L 460.015625 266.007812 C 458.230469 266.007812 457.246094 266.65625 457.132812 267.972656 L 454.179688 267.972656 C 454.636719 265.367188 456.589844 264.050781 460.015625 264.050781 L 465.863281 264.050781 C 467.445312 264.050781 468.824219 264.433594 469.972656 265.191406 C 471.113281 265.960938 471.6875 266.875 471.6875 267.929688 Z M 451.007812 274.722656 C 451.007812 276.585938 450.015625 278.15625 448 279.480469 C 446.003906 280.832031 443.59375 281.488281 440.792969 281.488281 L 436.429688 281.488281 L 436.429688 279.535156 L 439.332031 279.535156 C 440.949219 279.535156 442.320312 279.15625 443.453125 278.386719 C 444.570312 277.617188 445.15625 276.722656 445.15625 275.667969 L 445.15625 273.703125 C 444.929688 275.023438 443.980469 275.691406 442.242188 275.691406 L 439.332031 275.691406 C 437.75 275.691406 436.386719 275.304688 435.242188 274.546875 C 434.082031 273.789062 433.492188 272.886719 433.492188 271.828125 L 433.492188 267.945312 C 433.492188 266.875 434.074219 265.976562 435.242188 265.207031 C 436.375 264.433594 437.742188 264.050781 439.332031 264.050781 L 445.179688 264.050781 C 446.769531 264.050781 448.140625 264.433594 449.28125 265.207031 C 450.417969 265.976562 451.007812 266.875 451.007812 267.945312 Z M 428.59375 281.488281 L 423.101562 281.488281 L 423.101562 267.972656 L 420.1875 267.972656 L 420.1875 266.007812 L 426.015625 264.050781 L 428.59375 264.050781 Z M 457.710938 236.714844 C 442.578125 236.714844 428.324219 240.496094 415.828125 247.140625 C 387.644531 262.148438 368.4375 291.820312 368.4375 325.984375 C 368.4375 331.308594 368.933594 336.511719 369.832031 341.578125 C 381.558594 333.253906 395.878906 328.34375 411.355469 328.34375 C 424.921875 328.34375 437.644531 332.09375 448.476562 338.617188 C 448.609375 338.703125 448.757812 338.785156 448.898438 338.875 C 449.222656 339.066406 449.542969 339.273438 449.855469 339.480469 C 461.617188 346.519531 475.363281 350.574219 490.0625 350.574219 C 512.484375 350.574219 532.699219 341.144531 546.976562 326.042969 L 546.976562 325.984375 C 546.976562 276.679688 507.007812 236.714844 457.710938 236.714844 "/>
<g clip-path="url(#clip1)" clip-rule="nonzero">
<rect x="0" y="0" width="943.937" height="668.976" style="comp-op:multiply;fill:rgb(0%,0%,0%);fill-opacity:0;stroke:none;"/>
</g>
</g>
</svg>
